<svg xmlns="http://www.w3.org/2000/svg" width="32" height="32" fill="none"><path fill="#000" fill-rule="evenodd" d="M17.296 2.296a1 1 0 0 1 1.414 0L25.414 9H28a2 2 0 0 1 2 2v3a2 2 0 0 1-2 2h-1l-1.755 12.283A2 2 0 0 1 23.265 30H8.735a2 2 0 0 1-1.98-1.717L5 16H4a2 2 0 0 1-2-2v-3a2 2 0 0 1 2-2h2.66c.015-.017.03-.034.047-.05l6.653-6.653a1 1 0 0 1 1.414 1.414l-5.289 5.29h13.1l-5.29-5.291a1 1 0 0 1 0-1.414ZM18 19a1 1 0 1 1 2 0v6a1 1 0 1 1-2 0v-6Zm-5-1a1 1 0 0 0-1 1v6a1 1 0 1 0 2 0v-6a1 1 0 0 0-1-1Z" clip-rule="evenodd"/></svg>